<?xml version="1.0" encoding="UTF-8" standalone="no"?>
<!-- Generator: Adobe Illustrator 26.3.1, SVG Export Plug-In . SVG Version: 6.00 Build 0)  -->

<svg
   version="1.1"
   id="Layer_1"
   x="0px"
   y="0px"
   viewBox="0 0 60.000001 60"
   xml:space="preserve"
   sodipodi:docname="telix-icon-white-transp-bg.svg"
   width="60"
   height="60"
   inkscape:version="1.3.2 (091e20e, 2023-11-25, custom)"
   xmlns:inkscape="http://www.inkscape.org/namespaces/inkscape"
   xmlns:sodipodi="http://sodipodi.sourceforge.net/DTD/sodipodi-0.dtd"
   xmlns="http://www.w3.org/2000/svg"
   xmlns:svg="http://www.w3.org/2000/svg"><defs
   id="defs22">
	
</defs><sodipodi:namedview
   id="namedview22"
   pagecolor="#000000"
   bordercolor="#000000"
   borderopacity="0.25"
   inkscape:showpageshadow="2"
   inkscape:pageopacity="0.0"
   inkscape:pagecheckerboard="0"
   inkscape:deskcolor="#d1d1d1"
   inkscape:zoom="7.8086972"
   inkscape:cx="35.025049"
   inkscape:cy="25.036187"
   inkscape:window-width="1350"
   inkscape:window-height="1237"
   inkscape:window-x="156"
   inkscape:window-y="156"
   inkscape:window-maximized="0"
   inkscape:current-layer="Layer_1" />
<style
   type="text/css"
   id="style1">
	.st0{fill:#2100B1;}
	.st1{fill:url(#SVGID_1_);}
	.st2{fill:url(#SVGID_00000098934300058204176910000012752512058881988765_);}
	.st3{fill:#0A2F95;}
</style>

<rect
   style="display:none;opacity:0.848101;fill:#343332;fill-opacity:1;fill-rule:evenodd;stroke:none;stroke-width:1;stroke-linecap:round;stroke-linejoin:round;stroke-dasharray:none;stroke-opacity:1;paint-order:markers fill stroke"
   id="rect23"
   width="146.18315"
   height="59.805111"
   x="1.9085083"
   y="1.3924446"
   ry="9.7967691" /><g
   id="g23"
   transform="translate(3.1984702,-1.2950001)"
   style="fill:#ffffff;fill-opacity:1"><g
     id="g21"
     transform="translate(5.5018744,2.2950001)"
     style="fill:#ffffff;fill-opacity:1">
		<g
   id="g20"
   style="fill:#ffffff;fill-opacity:1">
			<path
   class="st0"
   d="M 4,32 C 3.9,28.9 4.7,25.9 6.2,23.3 5.7,21.4 5.6,19.7 5.7,18 2.3,21.7 0.3,26.7 0.4,32.1 0.6,42.8 9.2,51.3 19.7,51.8 19.6,50.6 19.3,49.2 18.9,48.1 10.6,47.3 4.1,40.4 4,32 Z"
   id="path1"
   style="stroke:none;stroke-width:0.25;stroke-linejoin:round;stroke-dasharray:none;stroke-opacity:1;fill:#ffffff;fill-opacity:1" />
			<path
   class="st0"
   d="m 21.7,9.8 c 0,0 0,0 0,0 0.4,1 1,2.4 1.9,3.6 8.3,0.8 14.9,7.7 15,16.3 0,3.3 -0.9,6.4 -2.5,9 0.1,1.6 0.1,3.7 -0.4,6.1 C 39.8,41 42.3,35.6 42.2,29.6 42.1,18.5 32.9,9.6 21.7,9.8 Z"
   id="path2"
   style="stroke:none;stroke-width:0.25;stroke-linejoin:round;stroke-dasharray:none;stroke-opacity:1;fill:#ffffff;fill-opacity:1" />
			
				<linearGradient
   id="SVGID_1_"
   gradientUnits="userSpaceOnUse"
   x1="20.5905"
   y1="38.998402"
   x2="33.076698"
   y2="25.956699"
   gradientTransform="matrix(1,0,0,-1,0,59)">
				<stop
   offset="0"
   style="stop-color:#0288FF"
   id="stop2" />
				<stop
   offset="1"
   style="stop-color:#0052FF"
   id="stop3" />
			</linearGradient>
			<path
   class="st1"
   d="m 17.3,1 c -2.6,9 -1.3,15 4.7,23.9 7.5,11 9.6,15 10.2,22.9 3.5,-9 1.5,-14.3 -5.1,-24.2 C 20.4,13.4 19.3,11.7 17.3,1 Z"
   id="path3"
   style="fill:#ffffff;stroke:none;stroke-width:0.25;stroke-linejoin:round;stroke-dasharray:none;stroke-opacity:1;fill-opacity:1" />
			
				<linearGradient
   id="SVGID_00000144329753408607376250000004848988373660662700_"
   gradientUnits="userSpaceOnUse"
   x1="11.9701"
   y1="29.927"
   x2="23.5546"
   y2="16.1014"
   gradientTransform="matrix(1,0,0,-1,0,59)">
				<stop
   offset="0"
   style="stop-color:#0087FF"
   id="stop4" />
				<stop
   offset="1"
   style="stop-color:#0052FF"
   id="stop5" />
			</linearGradient>
			<path
   style="fill:#ffffff;stroke:none;stroke-width:0.25;stroke-linejoin:round;stroke-dasharray:none;stroke-opacity:1;fill-opacity:1"
   d="m 8.5,10 c -2.8,8.9 -0.8,14.8 5,23.7 7.3,11.1 8.7,15.4 9.2,23.3 3.6,-8.9 2,-14.9 -4.4,-25 C 11.8,21.7 10.4,20.7 8.5,10 Z"
   id="path5" />
			<path
   class="st0"
   d="m 20.6,30.6 c 0.9,0 1.6,-0.7 1.6,-1.6 0,-0.9 -0.7,-1.6 -1.6,-1.6 -0.9,0 -1.6,0.7 -1.6,1.6 0,0.9 0.7,1.6 1.6,1.6 z"
   id="path6"
   style="stroke:none;stroke-width:0.25;stroke-linejoin:round;stroke-dasharray:none;stroke-opacity:1;fill:#ffffff;fill-opacity:1" />
			<path
   class="st0"
   d="m 16.9,24.6 c 0.7,0 1.3,-0.6 1.3,-1.3 0,-0.7 -0.6,-1.3 -1.3,-1.3 -0.7,0 -1.3,0.6 -1.3,1.3 0,0.7 0.6,1.3 1.3,1.3 z"
   id="path7"
   style="stroke:none;stroke-width:0.25;stroke-linejoin:round;stroke-dasharray:none;stroke-opacity:1;fill:#ffffff;fill-opacity:1" />
			<path
   class="st0"
   d="m 24.3,35.8 c 0.7,0 1.3,-0.6 1.3,-1.3 0,-0.7 -0.6,-1.3 -1.3,-1.3 -0.7,0 -1.3,0.6 -1.3,1.3 0,0.7 0.6,1.3 1.3,1.3 z"
   id="path8"
   style="stroke:none;stroke-width:0.25;stroke-linejoin:round;stroke-dasharray:none;stroke-opacity:1;fill:#ffffff;fill-opacity:1" />
			<path
   class="st0"
   d="m 14,18.6 c 0.6,0 1.1,-0.5 1.1,-1.1 0,-0.6 -0.5,-1.1 -1.1,-1.1 -0.6,0 -1.1,0.5 -1.1,1.1 0.1,0.7 0.6,1.1 1.1,1.1 z"
   id="path9"
   style="stroke:none;stroke-width:0.25;stroke-linejoin:round;stroke-dasharray:none;stroke-opacity:1;fill:#ffffff;fill-opacity:1" />
			<path
   class="st0"
   d="m 26.9,41 c 0.6,0 1.1,-0.5 1.1,-1.1 0,-0.6 -0.5,-1.1 -1.1,-1.1 -0.6,0 -1.1,0.5 -1.1,1.1 0,0.6 0.5,1.1 1.1,1.1 z"
   id="path10"
   style="stroke:none;stroke-width:0.25;stroke-linejoin:round;stroke-dasharray:none;stroke-opacity:1;fill:#ffffff;fill-opacity:1" />
			<path
   class="st0"
   d="m 12.5,13.6 c 0.5,0 0.9,-0.4 0.9,-0.9 0,-0.5 -0.4,-0.9 -0.9,-0.9 -0.5,0 -0.9,0.4 -0.9,0.9 0,0.5 0.4,0.9 0.9,0.9 z"
   id="path11"
   style="stroke:none;stroke-width:0.25;stroke-linejoin:round;stroke-dasharray:none;stroke-opacity:1;fill:#ffffff;fill-opacity:1" />
			<path
   class="st0"
   d="m 12.5,8.3 c 0.5,0 0.9,-0.4 0.9,-0.9 0,-0.5 -0.4,-0.9 -0.9,-0.9 -0.5,0 -0.9,0.4 -0.9,0.9 0,0.5 0.4,0.9 0.9,0.9 z"
   id="path12"
   style="stroke:none;stroke-width:0.25;stroke-linejoin:round;stroke-dasharray:none;stroke-opacity:1;fill:#ffffff;fill-opacity:1" />
			<path
   class="st0"
   d="m 27.9,47.2 c 0.5,0 0.9,-0.4 0.9,-0.9 0,-0.5 -0.4,-0.9 -0.9,-0.9 -0.5,0 -0.9,0.4 -0.9,0.9 0.1,0.5 0.5,0.9 0.9,0.9 z"
   id="path13"
   style="stroke:none;stroke-width:0.25;stroke-linejoin:round;stroke-dasharray:none;stroke-opacity:1;fill:#ffffff;fill-opacity:1" />
			<path
   class="st0"
   d="m 27.9,52.7 c 0.5,0 0.9,-0.4 0.9,-0.9 0,-0.5 -0.4,-0.9 -0.9,-0.9 -0.5,0 -0.9,0.4 -0.9,0.9 0,0.5 0.4,0.9 0.9,0.9 z"
   id="path14"
   style="stroke:none;stroke-width:0.25;stroke-linejoin:round;stroke-dasharray:none;stroke-opacity:1;fill:#ffffff;fill-opacity:1" />
			
			
			
			
			
			
		</g>
	</g></g></svg>
